<mxfile host="Electron" modified="2024-10-29T08:04:34.181Z" agent="Mozilla/5.0 (X11; Linux x86_64) AppleWebKit/537.36 (KHTML, like Gecko) draw.io/24.4.0 Chrome/122.0.6261.156 Electron/29.4.4 Safari/537.36" etag="cXRFFg-R4WGeBp3urNRM" version="24.3.1" type="device">
  <diagram name="Page-1" id="WwfLBa-Y17-9DSZX8frn">
    <mxGraphModel dx="1231" dy="907" grid="1" gridSize="10" guides="1" tooltips="1" connect="1" arrows="1" fold="1" page="1" pageScale="1" pageWidth="850" pageHeight="1100" math="0" shadow="0">
      <root>
        <mxCell id="0" />
        <mxCell id="1" parent="0" />
        <mxCell id="RWXxfn7ORbIsKhEqfq4H-1" value="GroupID" style="rounded=1;whiteSpace=wrap;html=1;fillColor=#dae8fc;strokeColor=#6c8ebf;align=center;fontFamily=mono;" parent="1" vertex="1">
          <mxGeometry x="180" y="80" width="60" height="20" as="geometry" />
        </mxCell>
        <mxCell id="RWXxfn7ORbIsKhEqfq4H-2" value="MemberID" style="rounded=1;whiteSpace=wrap;html=1;fillColor=#d5e8d4;strokeColor=#82b366;align=center;fontFamily=mono;" parent="1" vertex="1">
          <mxGeometry x="240" y="80" width="60" height="20" as="geometry" />
        </mxCell>
        <mxCell id="RWXxfn7ORbIsKhEqfq4H-3" value="GuestID" style="rounded=1;whiteSpace=wrap;html=1;fillColor=#ffe6cc;strokeColor=#d79b00;align=center;fontFamily=mono;" parent="1" vertex="1">
          <mxGeometry x="300" y="80" width="60" height="20" as="geometry" />
        </mxCell>
        <mxCell id="RWXxfn7ORbIsKhEqfq4H-5" value="PrivilegeLevel" style="rounded=1;whiteSpace=wrap;html=1;fillColor=#e1d5e7;strokeColor=#9673a6;align=center;fontFamily=mono;" parent="1" vertex="1">
          <mxGeometry x="70" y="80" width="110" height="20" as="geometry" />
        </mxCell>
        <mxCell id="RWXxfn7ORbIsKhEqfq4H-6" value="..." style="rounded=1;whiteSpace=wrap;html=1;fillColor=#f5f5f5;strokeColor=#666666;align=center;fontFamily=mono;fontColor=#333333;" parent="1" vertex="1">
          <mxGeometry x="40" y="80" width="30" height="20" as="geometry" />
        </mxCell>
        <mxCell id="RWXxfn7ORbIsKhEqfq4H-7" value="&lt;b&gt;Address fields for a IMSIC page&lt;/b&gt;" style="text;html=1;align=center;verticalAlign=middle;whiteSpace=wrap;rounded=0;" parent="1" vertex="1">
          <mxGeometry x="60" y="110" width="280" height="20" as="geometry" />
        </mxCell>
      </root>
    </mxGraphModel>
  </diagram>
</mxfile>
